<?xml version="1.0" encoding="UTF-8" standalone="no"?>
<!DOCTYPE svg PUBLIC "-//W3C//DTD SVG 1.1//EN" "http://www.w3.org/Graphics/SVG/1.1/DTD/svg11.dtd">
<svg xmlns:xlink="http://www.w3.org/1999/xlink" height="1002px" version="1.1" viewBox="50 0 480 1002" width="480px" x="0px" y="0px" xmlns="http://www.w3.org/2000/svg">
  <rect height="1002" style="fill:rgb(255,255,255);stroke:none;" width="480" x="0" y="0"/>
  <line style="fill:none;stroke:rgb(0,0,0);stroke-miterlimit:10;stroke-linecap:square;" x1="190" x2="190" y1="517" y2="395"/>
  <line style="fill:none;stroke:rgb(0,0,0);stroke-miterlimit:10;stroke-linecap:square;" x1="190" x2="204" y1="395" y2="395"/>
  <line style="fill:none;stroke:rgb(0,0,0);stroke-miterlimit:10;stroke-linecap:square;" x1="204" x2="204" y1="395" y2="319"/>
  <line style="fill:none;stroke:rgb(0,0,0);stroke-miterlimit:10;stroke-linecap:square;" x1="204" x2="247" y1="319" y2="319"/>
  <line style="fill:none;stroke:rgb(0,0,0);stroke-miterlimit:10;stroke-linecap:square;" x1="247" x2="247" y1="319" y2="298"/>
  <line style="fill:none;stroke:rgb(0,0,0);stroke-miterlimit:10;stroke-linecap:square;" x1="247" x2="261" y1="298" y2="298"/>
  <line style="fill:none;stroke:rgb(0,0,0);stroke-miterlimit:10;stroke-linecap:square;" x1="261" x2="261" y1="298" y2="288"/>
  <line style="fill:none;stroke:rgb(0,0,0);stroke-miterlimit:10;stroke-linecap:square;" x1="261" x2="276" y1="288" y2="288"/>
  <line style="fill:none;stroke:rgb(0,0,0);stroke-miterlimit:10;stroke-linecap:square;" x1="276" x2="276" y1="288" y2="282"/>
  <line style="fill:none;stroke:rgb(0,0,0);stroke-miterlimit:10;stroke-linecap:square;" x1="276" x2="290" y1="282" y2="282"/>
  <text style="fill:rgb(0,0,0);stroke:none;font-family:Arial,&quot;SansSerif&quot;;font-size:11px;" x="294" y="287">1874a_Nouveaux_contes_a_Ninon</text>
  <line style="fill:none;stroke:rgb(0,0,0);stroke-miterlimit:10;stroke-linecap:square;" x1="276" x2="276" y1="288" y2="295"/>
  <line style="fill:none;stroke:rgb(0,0,0);stroke-miterlimit:10;stroke-linecap:square;" x1="276" x2="290" y1="295" y2="295"/>
  <text style="fill:rgb(0,0,0);stroke:none;font-family:Arial,&quot;SansSerif&quot;;font-size:11px;" x="294" y="300">1864_Contes_a_Ninon</text>
  <line style="fill:none;stroke:rgb(0,0,0);stroke-miterlimit:10;stroke-linecap:square;" x1="261" x2="261" y1="298" y2="308"/>
  <line style="fill:none;stroke:rgb(0,0,0);stroke-miterlimit:10;stroke-linecap:square;" x1="261" x2="290" y1="308" y2="308"/>
  <text style="fill:rgb(0,0,0);stroke:none;font-family:Arial,&quot;SansSerif&quot;;font-size:11px;" x="294" y="313">1865_La_confession_de_Claude</text>
  <line style="fill:none;stroke:rgb(0,0,0);stroke-miterlimit:10;stroke-linecap:square;" x1="247" x2="247" y1="319" y2="340"/>
  <line style="fill:none;stroke:rgb(0,0,0);stroke-miterlimit:10;stroke-linecap:square;" x1="247" x2="261" y1="340" y2="340"/>
  <line style="fill:none;stroke:rgb(0,0,0);stroke-miterlimit:10;stroke-linecap:square;" x1="261" x2="261" y1="340" y2="327"/>
  <line style="fill:none;stroke:rgb(0,0,0);stroke-miterlimit:10;stroke-linecap:square;" x1="261" x2="276" y1="327" y2="327"/>
  <line style="fill:none;stroke:rgb(0,0,0);stroke-miterlimit:10;stroke-linecap:square;" x1="276" x2="276" y1="327" y2="321"/>
  <line style="fill:none;stroke:rgb(0,0,0);stroke-miterlimit:10;stroke-linecap:square;" x1="276" x2="290" y1="321" y2="321"/>
  <text style="fill:rgb(0,0,0);stroke:none;font-family:Arial,&quot;SansSerif&quot;;font-size:11px;" x="294" y="326">1867_Les_mysteres_de_Marseille</text>
  <line style="fill:none;stroke:rgb(0,0,0);stroke-miterlimit:10;stroke-linecap:square;" x1="276" x2="276" y1="327" y2="334"/>
  <line style="fill:none;stroke:rgb(0,0,0);stroke-miterlimit:10;stroke-linecap:square;" x1="276" x2="290" y1="334" y2="334"/>
  <text style="fill:rgb(0,0,0);stroke:none;font-family:Arial,&quot;SansSerif&quot;;font-size:11px;" x="294" y="339">1866_Le_voeu_d_une_morte</text>
  <line style="fill:none;stroke:rgb(0,0,0);stroke-miterlimit:10;stroke-linecap:square;" x1="261" x2="261" y1="340" y2="353"/>
  <line style="fill:none;stroke:rgb(0,0,0);stroke-miterlimit:10;stroke-linecap:square;" x1="261" x2="276" y1="353" y2="353"/>
  <line style="fill:none;stroke:rgb(0,0,0);stroke-miterlimit:10;stroke-linecap:square;" x1="276" x2="276" y1="353" y2="346"/>
  <line style="fill:none;stroke:rgb(0,0,0);stroke-miterlimit:10;stroke-linecap:square;" x1="276" x2="290" y1="346" y2="346"/>
  <text style="fill:rgb(0,0,0);stroke:none;font-family:Arial,&quot;SansSerif&quot;;font-size:11px;" x="294" y="351">1868_Madeleine_Ferat</text>
  <line style="fill:none;stroke:rgb(0,0,0);stroke-miterlimit:10;stroke-linecap:square;" x1="276" x2="276" y1="353" y2="359"/>
  <line style="fill:none;stroke:rgb(0,0,0);stroke-miterlimit:10;stroke-linecap:square;" x1="276" x2="290" y1="359" y2="359"/>
  <text style="fill:rgb(0,0,0);stroke:none;font-family:Arial,&quot;SansSerif&quot;;font-size:11px;" x="294" y="364">1867_Therese_Raquin</text>
  <line style="fill:none;stroke:rgb(0,0,0);stroke-miterlimit:10;stroke-linecap:square;" x1="204" x2="204" y1="395" y2="470"/>
  <line style="fill:none;stroke:rgb(0,0,0);stroke-miterlimit:10;stroke-linecap:square;" x1="204" x2="219" y1="470" y2="470"/>
  <line style="fill:none;stroke:rgb(0,0,0);stroke-miterlimit:10;stroke-linecap:square;" x1="219" x2="219" y1="470" y2="437"/>
  <line style="fill:none;stroke:rgb(0,0,0);stroke-miterlimit:10;stroke-linecap:square;" x1="219" x2="233" y1="437" y2="437"/>
  <line style="fill:none;stroke:rgb(0,0,0);stroke-miterlimit:10;stroke-linecap:square;" x1="233" x2="233" y1="437" y2="408"/>
  <line style="fill:none;stroke:rgb(0,0,0);stroke-miterlimit:10;stroke-linecap:square;" x1="233" x2="247" y1="408" y2="408"/>
  <line style="fill:none;stroke:rgb(0,0,0);stroke-miterlimit:10;stroke-linecap:square;" x1="247" x2="247" y1="408" y2="388"/>
  <line style="fill:none;stroke:rgb(0,0,0);stroke-miterlimit:10;stroke-linecap:square;" x1="247" x2="261" y1="388" y2="388"/>
  <line style="fill:none;stroke:rgb(0,0,0);stroke-miterlimit:10;stroke-linecap:square;" x1="261" x2="261" y1="388" y2="379"/>
  <line style="fill:none;stroke:rgb(0,0,0);stroke-miterlimit:10;stroke-linecap:square;" x1="261" x2="276" y1="379" y2="379"/>
  <line style="fill:none;stroke:rgb(0,0,0);stroke-miterlimit:10;stroke-linecap:square;" x1="276" x2="276" y1="379" y2="372"/>
  <line style="fill:none;stroke:rgb(0,0,0);stroke-miterlimit:10;stroke-linecap:square;" x1="276" x2="290" y1="372" y2="372"/>
  <text style="fill:rgb(0,0,0);stroke:none;font-family:Arial,&quot;SansSerif&quot;;font-size:11px;" x="294" y="377">1876_6_Son_Excellence_Eugene_Rougon</text>
  <line style="fill:none;stroke:rgb(0,0,0);stroke-miterlimit:10;stroke-linecap:square;" x1="276" x2="276" y1="379" y2="385"/>
  <line style="fill:none;stroke:rgb(0,0,0);stroke-miterlimit:10;stroke-linecap:square;" x1="276" x2="290" y1="385" y2="385"/>
  <text style="fill:rgb(0,0,0);stroke:none;font-family:Arial,&quot;SansSerif&quot;;font-size:11px;" x="294" y="390">1875_5_La_faute_de_l_abbe_Mouret</text>
  <line style="fill:none;stroke:rgb(0,0,0);stroke-miterlimit:10;stroke-linecap:square;" x1="261" x2="261" y1="388" y2="398"/>
  <line style="fill:none;stroke:rgb(0,0,0);stroke-miterlimit:10;stroke-linecap:square;" x1="261" x2="290" y1="398" y2="398"/>
  <text style="fill:rgb(0,0,0);stroke:none;font-family:Arial,&quot;SansSerif&quot;;font-size:11px;" x="294" y="403">1874b_4_La_conquete_de_Plassans</text>
  <line style="fill:none;stroke:rgb(0,0,0);stroke-miterlimit:10;stroke-linecap:square;" x1="247" x2="247" y1="408" y2="427"/>
  <line style="fill:none;stroke:rgb(0,0,0);stroke-miterlimit:10;stroke-linecap:square;" x1="247" x2="261" y1="427" y2="427"/>
  <line style="fill:none;stroke:rgb(0,0,0);stroke-miterlimit:10;stroke-linecap:square;" x1="261" x2="261" y1="427" y2="417"/>
  <line style="fill:none;stroke:rgb(0,0,0);stroke-miterlimit:10;stroke-linecap:square;" x1="261" x2="276" y1="417" y2="417"/>
  <line style="fill:none;stroke:rgb(0,0,0);stroke-miterlimit:10;stroke-linecap:square;" x1="276" x2="276" y1="417" y2="411"/>
  <line style="fill:none;stroke:rgb(0,0,0);stroke-miterlimit:10;stroke-linecap:square;" x1="276" x2="290" y1="411" y2="411"/>
  <text style="fill:rgb(0,0,0);stroke:none;font-family:Arial,&quot;SansSerif&quot;;font-size:11px;" x="294" y="416">1885a_L_inondation_et_autres_nouvelles</text>
  <line style="fill:none;stroke:rgb(0,0,0);stroke-miterlimit:10;stroke-linecap:square;" x1="276" x2="276" y1="417" y2="424"/>
  <line style="fill:none;stroke:rgb(0,0,0);stroke-miterlimit:10;stroke-linecap:square;" x1="276" x2="290" y1="424" y2="424"/>
  <text style="fill:rgb(0,0,0);stroke:none;font-family:Arial,&quot;SansSerif&quot;;font-size:11px;" x="294" y="429">1884a_Nais_Micoulin_et_autres_nouvelles</text>
  <line style="fill:none;stroke:rgb(0,0,0);stroke-miterlimit:10;stroke-linecap:square;" x1="261" x2="261" y1="427" y2="437"/>
  <line style="fill:none;stroke:rgb(0,0,0);stroke-miterlimit:10;stroke-linecap:square;" x1="261" x2="290" y1="437" y2="437"/>
  <text style="fill:rgb(0,0,0);stroke:none;font-family:Arial,&quot;SansSerif&quot;;font-size:11px;" x="294" y="442">1878_8_Une_page_d_amour</text>
  <line style="fill:none;stroke:rgb(0,0,0);stroke-miterlimit:10;stroke-linecap:square;" x1="233" x2="233" y1="437" y2="466"/>
  <line style="fill:none;stroke:rgb(0,0,0);stroke-miterlimit:10;stroke-linecap:square;" x1="233" x2="261" y1="466" y2="466"/>
  <line style="fill:none;stroke:rgb(0,0,0);stroke-miterlimit:10;stroke-linecap:square;" x1="261" x2="261" y1="466" y2="456"/>
  <line style="fill:none;stroke:rgb(0,0,0);stroke-miterlimit:10;stroke-linecap:square;" x1="261" x2="276" y1="456" y2="456"/>
  <line style="fill:none;stroke:rgb(0,0,0);stroke-miterlimit:10;stroke-linecap:square;" x1="276" x2="276" y1="456" y2="449"/>
  <line style="fill:none;stroke:rgb(0,0,0);stroke-miterlimit:10;stroke-linecap:square;" x1="276" x2="290" y1="449" y2="449"/>
  <text style="fill:rgb(0,0,0);stroke:none;font-family:Arial,&quot;SansSerif&quot;;font-size:11px;" x="294" y="454">1882_10_Pot-bouille</text>
  <line style="fill:none;stroke:rgb(0,0,0);stroke-miterlimit:10;stroke-linecap:square;" x1="276" x2="276" y1="456" y2="462"/>
  <line style="fill:none;stroke:rgb(0,0,0);stroke-miterlimit:10;stroke-linecap:square;" x1="276" x2="290" y1="462" y2="462"/>
  <text style="fill:rgb(0,0,0);stroke:none;font-family:Arial,&quot;SansSerif&quot;;font-size:11px;" x="294" y="467">1880_9_Nana</text>
  <line style="fill:none;stroke:rgb(0,0,0);stroke-miterlimit:10;stroke-linecap:square;" x1="261" x2="261" y1="466" y2="475"/>
  <line style="fill:none;stroke:rgb(0,0,0);stroke-miterlimit:10;stroke-linecap:square;" x1="261" x2="290" y1="475" y2="475"/>
  <text style="fill:rgb(0,0,0);stroke:none;font-family:Arial,&quot;SansSerif&quot;;font-size:11px;" x="294" y="480">1877_7_L_assommoir</text>
  <line style="fill:none;stroke:rgb(0,0,0);stroke-miterlimit:10;stroke-linecap:square;" x1="219" x2="219" y1="470" y2="504"/>
  <line style="fill:none;stroke:rgb(0,0,0);stroke-miterlimit:10;stroke-linecap:square;" x1="219" x2="261" y1="504" y2="504"/>
  <line style="fill:none;stroke:rgb(0,0,0);stroke-miterlimit:10;stroke-linecap:square;" x1="261" x2="261" y1="504" y2="495"/>
  <line style="fill:none;stroke:rgb(0,0,0);stroke-miterlimit:10;stroke-linecap:square;" x1="261" x2="276" y1="495" y2="495"/>
  <line style="fill:none;stroke:rgb(0,0,0);stroke-miterlimit:10;stroke-linecap:square;" x1="276" x2="276" y1="495" y2="488"/>
  <line style="fill:none;stroke:rgb(0,0,0);stroke-miterlimit:10;stroke-linecap:square;" x1="276" x2="290" y1="488" y2="488"/>
  <text style="fill:rgb(0,0,0);stroke:none;font-family:Arial,&quot;SansSerif&quot;;font-size:11px;" x="294" y="493">1871_2_La_curee</text>
  <line style="fill:none;stroke:rgb(0,0,0);stroke-miterlimit:10;stroke-linecap:square;" x1="276" x2="276" y1="495" y2="501"/>
  <line style="fill:none;stroke:rgb(0,0,0);stroke-miterlimit:10;stroke-linecap:square;" x1="276" x2="290" y1="501" y2="501"/>
  <text style="fill:rgb(0,0,0);stroke:none;font-family:Arial,&quot;SansSerif&quot;;font-size:11px;" x="294" y="506">1871_1_La_fortune_des_Rougon</text>
  <line style="fill:none;stroke:rgb(0,0,0);stroke-miterlimit:10;stroke-linecap:square;" x1="261" x2="261" y1="504" y2="514"/>
  <line style="fill:none;stroke:rgb(0,0,0);stroke-miterlimit:10;stroke-linecap:square;" x1="261" x2="290" y1="514" y2="514"/>
  <text style="fill:rgb(0,0,0);stroke:none;font-family:Arial,&quot;SansSerif&quot;;font-size:11px;" x="294" y="519">1873_3_Le_ventre_de_Paris</text>
  <line style="fill:none;stroke:rgb(0,0,0);stroke-miterlimit:10;stroke-linecap:square;" x1="190" x2="190" y1="517" y2="639"/>
  <line style="fill:none;stroke:rgb(0,0,0);stroke-miterlimit:10;stroke-linecap:square;" x1="190" x2="219" y1="639" y2="639"/>
  <line style="fill:none;stroke:rgb(0,0,0);stroke-miterlimit:10;stroke-linecap:square;" x1="219" x2="219" y1="639" y2="584"/>
  <line style="fill:none;stroke:rgb(0,0,0);stroke-miterlimit:10;stroke-linecap:square;" x1="219" x2="233" y1="584" y2="584"/>
  <line style="fill:none;stroke:rgb(0,0,0);stroke-miterlimit:10;stroke-linecap:square;" x1="233" x2="233" y1="584" y2="554"/>
  <line style="fill:none;stroke:rgb(0,0,0);stroke-miterlimit:10;stroke-linecap:square;" x1="233" x2="247" y1="554" y2="554"/>
  <line style="fill:none;stroke:rgb(0,0,0);stroke-miterlimit:10;stroke-linecap:square;" x1="247" x2="247" y1="554" y2="543"/>
  <line style="fill:none;stroke:rgb(0,0,0);stroke-miterlimit:10;stroke-linecap:square;" x1="247" x2="261" y1="543" y2="543"/>
  <line style="fill:none;stroke:rgb(0,0,0);stroke-miterlimit:10;stroke-linecap:square;" x1="261" x2="261" y1="543" y2="533"/>
  <line style="fill:none;stroke:rgb(0,0,0);stroke-miterlimit:10;stroke-linecap:square;" x1="261" x2="276" y1="533" y2="533"/>
  <line style="fill:none;stroke:rgb(0,0,0);stroke-miterlimit:10;stroke-linecap:square;" x1="276" x2="276" y1="533" y2="527"/>
  <line style="fill:none;stroke:rgb(0,0,0);stroke-miterlimit:10;stroke-linecap:square;" x1="276" x2="290" y1="527" y2="527"/>
  <text style="fill:rgb(0,0,0);stroke:none;font-family:Arial,&quot;SansSerif&quot;;font-size:11px;" x="294" y="532">1893_20_Le_docteur_Pascal</text>
  <line style="fill:none;stroke:rgb(0,0,0);stroke-miterlimit:10;stroke-linecap:square;" x1="276" x2="276" y1="533" y2="540"/>
  <line style="fill:none;stroke:rgb(0,0,0);stroke-miterlimit:10;stroke-linecap:square;" x1="276" x2="290" y1="540" y2="540"/>
  <text style="fill:rgb(0,0,0);stroke:none;font-family:Arial,&quot;SansSerif&quot;;font-size:11px;" x="294" y="545">1890_17_La_bete_humaine</text>
  <line style="fill:none;stroke:rgb(0,0,0);stroke-miterlimit:10;stroke-linecap:square;" x1="261" x2="261" y1="543" y2="553"/>
  <line style="fill:none;stroke:rgb(0,0,0);stroke-miterlimit:10;stroke-linecap:square;" x1="261" x2="290" y1="553" y2="553"/>
  <text style="fill:rgb(0,0,0);stroke:none;font-family:Arial,&quot;SansSerif&quot;;font-size:11px;" x="294" y="558">1884b_12_La_joie_de_vivre</text>
  <line style="fill:none;stroke:rgb(0,0,0);stroke-miterlimit:10;stroke-linecap:square;" x1="247" x2="247" y1="554" y2="565"/>
  <line style="fill:none;stroke:rgb(0,0,0);stroke-miterlimit:10;stroke-linecap:square;" x1="247" x2="290" y1="565" y2="565"/>
  <text style="fill:rgb(0,0,0);stroke:none;font-family:Arial,&quot;SansSerif&quot;;font-size:11px;" x="294" y="570">1888_16_Le_reve</text>
  <line style="fill:none;stroke:rgb(0,0,0);stroke-miterlimit:10;stroke-linecap:square;" x1="233" x2="233" y1="584" y2="614"/>
  <line style="fill:none;stroke:rgb(0,0,0);stroke-miterlimit:10;stroke-linecap:square;" x1="233" x2="247" y1="614" y2="614"/>
  <line style="fill:none;stroke:rgb(0,0,0);stroke-miterlimit:10;stroke-linecap:square;" x1="247" x2="247" y1="614" y2="598"/>
  <line style="fill:none;stroke:rgb(0,0,0);stroke-miterlimit:10;stroke-linecap:square;" x1="247" x2="261" y1="598" y2="598"/>
  <line style="fill:none;stroke:rgb(0,0,0);stroke-miterlimit:10;stroke-linecap:square;" x1="261" x2="261" y1="598" y2="585"/>
  <line style="fill:none;stroke:rgb(0,0,0);stroke-miterlimit:10;stroke-linecap:square;" x1="261" x2="276" y1="585" y2="585"/>
  <line style="fill:none;stroke:rgb(0,0,0);stroke-miterlimit:10;stroke-linecap:square;" x1="276" x2="276" y1="585" y2="578"/>
  <line style="fill:none;stroke:rgb(0,0,0);stroke-miterlimit:10;stroke-linecap:square;" x1="276" x2="290" y1="578" y2="578"/>
  <text style="fill:rgb(0,0,0);stroke:none;font-family:Arial,&quot;SansSerif&quot;;font-size:11px;" x="294" y="583">1886_14_L_oeuvre</text>
  <line style="fill:none;stroke:rgb(0,0,0);stroke-miterlimit:10;stroke-linecap:square;" x1="276" x2="276" y1="585" y2="591"/>
  <line style="fill:none;stroke:rgb(0,0,0);stroke-miterlimit:10;stroke-linecap:square;" x1="276" x2="290" y1="591" y2="591"/>
  <text style="fill:rgb(0,0,0);stroke:none;font-family:Arial,&quot;SansSerif&quot;;font-size:11px;" x="294" y="596">1883_11_Au_Bonheur_des_dames</text>
  <line style="fill:none;stroke:rgb(0,0,0);stroke-miterlimit:10;stroke-linecap:square;" x1="261" x2="261" y1="598" y2="611"/>
  <line style="fill:none;stroke:rgb(0,0,0);stroke-miterlimit:10;stroke-linecap:square;" x1="261" x2="276" y1="611" y2="611"/>
  <line style="fill:none;stroke:rgb(0,0,0);stroke-miterlimit:10;stroke-linecap:square;" x1="276" x2="276" y1="611" y2="604"/>
  <line style="fill:none;stroke:rgb(0,0,0);stroke-miterlimit:10;stroke-linecap:square;" x1="276" x2="290" y1="604" y2="604"/>
  <text style="fill:rgb(0,0,0);stroke:none;font-family:Arial,&quot;SansSerif&quot;;font-size:11px;" x="294" y="609">1887_15_La_terre</text>
  <line style="fill:none;stroke:rgb(0,0,0);stroke-miterlimit:10;stroke-linecap:square;" x1="276" x2="276" y1="611" y2="617"/>
  <line style="fill:none;stroke:rgb(0,0,0);stroke-miterlimit:10;stroke-linecap:square;" x1="276" x2="290" y1="617" y2="617"/>
  <text style="fill:rgb(0,0,0);stroke:none;font-family:Arial,&quot;SansSerif&quot;;font-size:11px;" x="294" y="622">1885b_13_Germinal</text>
  <line style="fill:none;stroke:rgb(0,0,0);stroke-miterlimit:10;stroke-linecap:square;" x1="247" x2="247" y1="614" y2="630"/>
  <line style="fill:none;stroke:rgb(0,0,0);stroke-miterlimit:10;stroke-linecap:square;" x1="247" x2="290" y1="630" y2="630"/>
  <text style="fill:rgb(0,0,0);stroke:none;font-family:Arial,&quot;SansSerif&quot;;font-size:11px;" x="294" y="635">1892_19_La_debacle</text>
  <line style="fill:none;stroke:rgb(0,0,0);stroke-miterlimit:10;stroke-linecap:square;" x1="219" x2="219" y1="639" y2="693"/>
  <line style="fill:none;stroke:rgb(0,0,0);stroke-miterlimit:10;stroke-linecap:square;" x1="219" x2="233" y1="693" y2="693"/>
  <line style="fill:none;stroke:rgb(0,0,0);stroke-miterlimit:10;stroke-linecap:square;" x1="233" x2="233" y1="693" y2="673"/>
  <line style="fill:none;stroke:rgb(0,0,0);stroke-miterlimit:10;stroke-linecap:square;" x1="233" x2="247" y1="673" y2="673"/>
  <line style="fill:none;stroke:rgb(0,0,0);stroke-miterlimit:10;stroke-linecap:square;" x1="247" x2="247" y1="673" y2="659"/>
  <line style="fill:none;stroke:rgb(0,0,0);stroke-miterlimit:10;stroke-linecap:square;" x1="247" x2="261" y1="659" y2="659"/>
  <line style="fill:none;stroke:rgb(0,0,0);stroke-miterlimit:10;stroke-linecap:square;" x1="261" x2="261" y1="659" y2="649"/>
  <line style="fill:none;stroke:rgb(0,0,0);stroke-miterlimit:10;stroke-linecap:square;" x1="261" x2="276" y1="649" y2="649"/>
  <line style="fill:none;stroke:rgb(0,0,0);stroke-miterlimit:10;stroke-linecap:square;" x1="276" x2="276" y1="649" y2="643"/>
  <line style="fill:none;stroke:rgb(0,0,0);stroke-miterlimit:10;stroke-linecap:square;" x1="276" x2="290" y1="643" y2="643"/>
  <text style="fill:rgb(0,0,0);stroke:none;font-family:Arial,&quot;SansSerif&quot;;font-size:11px;" x="294" y="648">1899_1_Fecondite</text>
  <line style="fill:none;stroke:rgb(0,0,0);stroke-miterlimit:10;stroke-linecap:square;" x1="276" x2="276" y1="649" y2="656"/>
  <line style="fill:none;stroke:rgb(0,0,0);stroke-miterlimit:10;stroke-linecap:square;" x1="276" x2="290" y1="656" y2="656"/>
  <text style="fill:rgb(0,0,0);stroke:none;font-family:Arial,&quot;SansSerif&quot;;font-size:11px;" x="294" y="661">1898_3_Paris</text>
  <line style="fill:none;stroke:rgb(0,0,0);stroke-miterlimit:10;stroke-linecap:square;" x1="261" x2="261" y1="659" y2="668"/>
  <line style="fill:none;stroke:rgb(0,0,0);stroke-miterlimit:10;stroke-linecap:square;" x1="261" x2="290" y1="668" y2="668"/>
  <text style="fill:rgb(0,0,0);stroke:none;font-family:Arial,&quot;SansSerif&quot;;font-size:11px;" x="294" y="673">1891_18_L_argent</text>
  <line style="fill:none;stroke:rgb(0,0,0);stroke-miterlimit:10;stroke-linecap:square;" x1="247" x2="247" y1="673" y2="688"/>
  <line style="fill:none;stroke:rgb(0,0,0);stroke-miterlimit:10;stroke-linecap:square;" x1="247" x2="276" y1="688" y2="688"/>
  <line style="fill:none;stroke:rgb(0,0,0);stroke-miterlimit:10;stroke-linecap:square;" x1="276" x2="276" y1="688" y2="681"/>
  <line style="fill:none;stroke:rgb(0,0,0);stroke-miterlimit:10;stroke-linecap:square;" x1="276" x2="290" y1="681" y2="681"/>
  <text style="fill:rgb(0,0,0);stroke:none;font-family:Arial,&quot;SansSerif&quot;;font-size:11px;" x="294" y="686">1903_3_Verite</text>
  <line style="fill:none;stroke:rgb(0,0,0);stroke-miterlimit:10;stroke-linecap:square;" x1="276" x2="276" y1="688" y2="694"/>
  <line style="fill:none;stroke:rgb(0,0,0);stroke-miterlimit:10;stroke-linecap:square;" x1="276" x2="290" y1="694" y2="694"/>
  <text style="fill:rgb(0,0,0);stroke:none;font-family:Arial,&quot;SansSerif&quot;;font-size:11px;" x="294" y="699">1901_2_Travail</text>
  <line style="fill:none;stroke:rgb(0,0,0);stroke-miterlimit:10;stroke-linecap:square;" x1="233" x2="233" y1="693" y2="714"/>
  <line style="fill:none;stroke:rgb(0,0,0);stroke-miterlimit:10;stroke-linecap:square;" x1="233" x2="276" y1="714" y2="714"/>
  <line style="fill:none;stroke:rgb(0,0,0);stroke-miterlimit:10;stroke-linecap:square;" x1="276" x2="276" y1="714" y2="707"/>
  <line style="fill:none;stroke:rgb(0,0,0);stroke-miterlimit:10;stroke-linecap:square;" x1="276" x2="290" y1="707" y2="707"/>
  <text style="fill:rgb(0,0,0);stroke:none;font-family:Arial,&quot;SansSerif&quot;;font-size:11px;" x="294" y="712">1896_2_Rome</text>
  <line style="fill:none;stroke:rgb(0,0,0);stroke-miterlimit:10;stroke-linecap:square;" x1="276" x2="276" y1="714" y2="720"/>
  <line style="fill:none;stroke:rgb(0,0,0);stroke-miterlimit:10;stroke-linecap:square;" x1="276" x2="290" y1="720" y2="720"/>
  <text style="fill:rgb(0,0,0);stroke:none;font-family:Arial,&quot;SansSerif&quot;;font-size:11px;" x="294" y="725">1894_1_Lourdes</text>
</svg>
